<svg width="125" height="269" viewBox="0 0 125 269" fill="none" xmlns="http://www.w3.org/2000/svg">
<path d="M17.584 0.00799561V110.984H33.456V15.496H90.416V110.856H106.928V0.00799561H17.584ZM28.464 43.016V58.248H97.328V43.016H28.464ZM28.336 87.176V102.664H97.328V87.176H28.336ZM5.424 173.16V188.776H118.704V173.16H5.424ZM31.792 231.272V246.888H91.184V231.272H31.792ZM53.68 148.328V268.52H70.064V148.328H53.68ZM49.072 178.792C39.984 202.344 21.424 225.384 0.432 236.904C3.888 239.976 9.008 245.864 11.568 249.704C33.968 235.624 52.144 211.176 63.152 183.272L49.072 178.792ZM74.672 179.176L60.72 183.784C71.856 211.048 89.776 235.496 112.304 249.32C114.864 244.968 120.368 238.568 124.208 235.368C102.704 224.232 84.016 201.96 74.672 179.176Z" fill="white"/>
</svg>
